<svg width="25" height="20" viewBox="0 0 25 20" fill="none" xmlns="http://www.w3.org/2000/svg">
<path d="M16.442 15.2364C16.058 15.4823 15.6394 15.5556 15.1863 15.4563C14.7332 15.3569 14.3837 15.1153 14.1378 14.7313L11.2774 10.2647C11.0315 9.88065 10.9582 9.46209 11.0576 9.00899C11.1569 8.55589 11.3986 8.20638 11.7826 7.96046L16.2391 5.10656C16.6298 4.85633 17.0517 4.78088 17.5049 4.88021C17.958 4.97955 18.3075 5.22121 18.5534 5.60522L18.9158 6.17113L17.5717 7.03183L17.397 6.75898C17.2762 6.57035 17.1959 6.47455 17.156 6.4716C17.1118 6.46191 16.9987 6.5153 16.8168 6.63179L12.9262 9.12329C12.7376 9.24409 12.6384 9.32659 12.6287 9.3708C12.6215 9.40395 12.6782 9.51485 12.799 9.70348L15.2841 13.584C15.4049 13.7726 15.484 13.8739 15.5215 13.8879C15.5614 13.8909 15.6756 13.832 15.8643 13.7112L19.7549 11.2197C19.9368 11.1032 20.0347 11.0262 20.0487 10.9887C20.0584 10.9445 20.0029 10.8281 19.8821 10.6395L19.1896 9.5582L17.5424 10.613L16.6817 9.26901L19.6729 7.35347L21.4137 10.0718C21.6597 10.4558 21.733 10.8744 21.6336 11.3275C21.5343 11.7806 21.2893 12.1323 20.8985 12.3825L16.442 15.2364Z" fill="#EB5757"/>
<path d="M5.768 12V4.956H2.24V3.36H10.88V4.956H7.364V12H5.768Z" fill="black"/>
<path opacity="0.5" fill-rule="evenodd" clip-rule="evenodd" d="M2 0.999992H18C18.5523 0.999992 19 1.44771 19 1.99999V2.83333H20V1.99999C20 0.895423 19.1046 -7.62939e-06 18 -7.62939e-06H2C0.895431 -7.62939e-06 0 0.895423 0 1.99999V15C0 16.1046 0.895431 17 2 17H8V16H2C1.44772 16 1 15.5523 1 15V1.99999C1 1.44771 1.44772 0.999992 2 0.999992Z" fill="#EB5757"/>
</svg>
